<?xml version="1.0" encoding="UTF-8" standalone="no"?>
<svg
   id="Layer_2"
   viewBox="0 0 170.99999 176.29"
   version="1.1"
   sodipodi:docname="usbmd_logo_v3_whiteline.svg"
   inkscape:version="1.1.2 (0a00cf5339, 2022-02-04)"
   width="171"
   height="176.28999"
   xmlns:inkscape="http://www.inkscape.org/namespaces/inkscape"
   xmlns:sodipodi="http://sodipodi.sourceforge.net/DTD/sodipodi-0.dtd"
   xmlns:xlink="http://www.w3.org/1999/xlink"
   xmlns="http://www.w3.org/2000/svg"
   xmlns:svg="http://www.w3.org/2000/svg">
  <sodipodi:namedview
     id="namedview133"
     pagecolor="#ffffff"
     bordercolor="#666666"
     borderopacity="1.0"
     inkscape:pageshadow="2"
     inkscape:pageopacity="0.0"
     inkscape:pagecheckerboard="0"
     showgrid="false"
     inkscape:zoom="2.8839401"
     inkscape:cx="58.600386"
     inkscape:cy="70.043064"
     inkscape:window-width="1920"
     inkscape:window-height="1043"
     inkscape:window-x="1920"
     inkscape:window-y="0"
     inkscape:window-maximized="1"
     inkscape:current-layer="text127"
     width="170.10001px" />
  <defs
     id="defs79">
    <style
       id="style2">
      .cls-1, .cls-2, .cls-3, .cls-4, .cls-5, .cls-6, .cls-7, .cls-8, .cls-9, .cls-10 {
        fill: none;
      }

      .cls-11 {
        font-family: Arial-Black, 'Arial Black';
        font-size: 27.87px;
        font-weight: 800;
      }

      .cls-12 {
        fill: #417d6d;
      }

      .cls-2 {
        stroke: url(#linear-gradient-4);
      }

      .cls-2, .cls-3, .cls-4, .cls-5, .cls-6, .cls-7, .cls-8, .cls-13, .cls-9, .cls-10 {
        stroke-miterlimit: 10;
      }

      .cls-3 {
        stroke: url(#linear-gradient-3);
      }

      .cls-4 {
        stroke: url(#linear-gradient-7);
      }

      .cls-5 {
        stroke: url(#linear-gradient-2);
      }

      .cls-6 {
        stroke: url(#linear-gradient-6);
      }

      .cls-7 {
        stroke: url(#linear-gradient-5);
      }

      .cls-8 {
        stroke: url(#linear-gradient-8);
      }

      .cls-14 {
        clip-path: url(#clippath-1);
      }

      .cls-13 {
        fill: #346357;
        stroke: #000;
        stroke-width: 1.5px;
      }

      .cls-9 {
        stroke: url(#linear-gradient-9);
        stroke-width: 2px;
      }

      .cls-10 {
        stroke: url(#linear-gradient);
      }

      .cls-15 {
        clip-path: url(#clippath);
      }
    </style>
    <linearGradient
       id="linear-gradient"
       x1="69.139999"
       y1="104.05"
       x2="99.650002"
       y2="104.05"
       gradientUnits="userSpaceOnUse">
      <stop
         offset="0"
         stop-color="#417d6d"
         id="stop4" />
      <stop
         offset=".02"
         stop-color="#376b5d"
         id="stop6" />
      <stop
         offset=".07"
         stop-color="#274d43"
         id="stop8" />
      <stop
         offset=".12"
         stop-color="#1a342d"
         id="stop10" />
      <stop
         offset=".18"
         stop-color="#10201c"
         id="stop12" />
      <stop
         offset=".25"
         stop-color="#091310"
         id="stop14" />
      <stop
         offset=".34"
         stop-color="#050b09"
         id="stop16" />
      <stop
         offset=".49"
         stop-color="#040907"
         id="stop18" />
      <stop
         offset=".71"
         stop-color="#040a08"
         id="stop20" />
      <stop
         offset=".78"
         stop-color="#08110e"
         id="stop22" />
      <stop
         offset=".84"
         stop-color="#0e1d19"
         id="stop24" />
      <stop
         offset=".88"
         stop-color="#172e27"
         id="stop26" />
      <stop
         offset=".92"
         stop-color="#23443b"
         id="stop28" />
      <stop
         offset=".95"
         stop-color="#315e52"
         id="stop30" />
      <stop
         offset=".98"
         stop-color="#417d6d"
         id="stop32" />
    </linearGradient>
    <linearGradient
       id="linear-gradient-2"
       x1="62.419998"
       y1="104.3"
       x2="103.21"
       y2="104.3"
       xlink:href="#linear-gradient" />
    <linearGradient
       id="linear-gradient-3"
       x1="57.990002"
       y1="108.84"
       x2="107.65"
       y2="108.84"
       xlink:href="#linear-gradient" />
    <linearGradient
       id="linear-gradient-4"
       x1="53.419998"
       y1="112.25"
       x2="113.19"
       y2="112.25"
       xlink:href="#linear-gradient" />
    <linearGradient
       id="linear-gradient-5"
       x1="44.41"
       y1="116.2"
       x2="120.1"
       y2="116.2"
       xlink:href="#linear-gradient" />
    <linearGradient
       id="linear-gradient-6"
       x1="36.720001"
       y1="120.27"
       x2="128.71001"
       y2="120.27"
       xlink:href="#linear-gradient" />
    <linearGradient
       id="linear-gradient-7"
       x1="20.530001"
       y1="125.15"
       x2="139.5"
       y2="125.15"
       xlink:href="#linear-gradient" />
    <linearGradient
       id="linear-gradient-8"
       x1="4.5900002"
       y1="131.03"
       x2="153.03999"
       y2="131.03"
       xlink:href="#linear-gradient" />
    <linearGradient
       id="linear-gradient-9"
       x1="0.059999999"
       y1="95.839996"
       x2="161.03"
       y2="95.839996"
       gradientUnits="userSpaceOnUse">
      <stop
         offset="0"
         stop-color="#000"
         id="stop42" />
      <stop
         offset=".12"
         stop-color="#010302"
         id="stop44" />
      <stop
         offset=".22"
         stop-color="#060d0b"
         id="stop46" />
      <stop
         offset=".31"
         stop-color="#0f1e1a"
         id="stop48" />
      <stop
         offset=".4"
         stop-color="#1c362f"
         id="stop50" />
      <stop
         offset=".48"
         stop-color="#2c554a"
         id="stop52" />
      <stop
         offset=".56"
         stop-color="#3f7a6b"
         id="stop54" />
      <stop
         offset=".56"
         stop-color="#417d6d"
         id="stop56" />
      <stop
         offset=".57"
         stop-color="#3e7768"
         id="stop58" />
      <stop
         offset=".63"
         stop-color="#2b5248"
         id="stop60" />
      <stop
         offset=".69"
         stop-color="#1b342e"
         id="stop62" />
      <stop
         offset=".75"
         stop-color="#0f1d19"
         id="stop64" />
      <stop
         offset=".81"
         stop-color="#060c0b"
         id="stop66" />
      <stop
         offset=".88"
         stop-color="#010302"
         id="stop68" />
      <stop
         offset=".98"
         stop-color="#000"
         id="stop70" />
    </linearGradient>
    <clipPath
       id="clippath">
      <polygon
         class="cls-1"
         points="72.85,2.03 141.16,2.03 77.54,102.02 72.85,102.02 "
         id="polygon73" />
    </clipPath>
    <clipPath
       id="clippath-1">
      <polygon
         class="cls-1"
         points="170.1,63.91 141.16,2.03 77.54,102.02 79.52,106.27 "
         id="polygon76" />
    </clipPath>
    <linearGradient
       inkscape:collect="always"
       xlink:href="#linear-gradient"
       id="linearGradient4952"
       gradientUnits="userSpaceOnUse"
       x1="69.139999"
       y1="104.05"
       x2="99.650002"
       y2="104.05" />
  </defs>
  <g
     id="wire"
     style="stroke:none"
     transform="translate(1,-1.5315437)">
    <path
       class="cls-12"
       d="m 160.79,91.92 c 10.31,-7.66 1.75,-25.53 -0.17,-35.74 -0.6,-2.83 -1.07,-6.11 0.67,-8.69 1.19,-2.12 4.01,-3.07 6.18,-1.87 2.32,1 2.54,4.16 1.85,6.25 -3.1,7.98 -10.75,2.01 -13.95,-2.59 -4.52,-5.82 -5.29,-13.93 -2.97,-20.8 1.94,-6.78 5.81,-18.47 -1.3,-23.3 -3.29,-1.91 -8.79,-2.3 -11.5,0.75 -0.76,1.18 -2.52,0.06 -1.8,-1.13 0.14,-0.22 0.34,-0.36 0.57,-0.45 5.38,-1.97 12.94,-2.13 16.35,3.25 2.41,3.9 2.19,8.68 1.31,12.96 -0.83,4.24 -3.08,8.05 -3.8,12.3 -1,5.57 0.44,11.39 3.9,15.86 2.4,3.12 7.68,8.82 11.35,4.6 1.99,-2.5 1.72,-7.37 -2.29,-7.24 -1.27,0 -2.39,0.83 -3.08,1.96 -2.24,3.69 -0.36,8.14 0.52,12.08 1.45,5.55 3.25,11.03 3.94,16.76 0.75,5.64 -0.07,12.66 -5.31,16.02 -0.65,0.3 -1.13,-0.63 -0.48,-0.97 v 0 z"
       id="path81"
       style="stroke:none;stroke-opacity:1" />
  </g>
  <g
     id="background"
     transform="translate(1,-1.5315437)">
    <circle
       class="cls-12"
       cx="80.550003"
       cy="95.739998"
       r="80.550003"
       id="circle84"
       style="stroke:#000000;stroke-opacity:1" />
  </g>
  <g
     id="waves"
     transform="translate(1,-1.5315437)">
    <g
       id="g103">
      <path
         class="cls-10"
         d="m 99.16,99.2 c -0.7,4.66 -2.88,7.93 -6.26,10.19 -3.33,2.18 -7.86,3.34 -12.24,1.95 -4.38,-1.4 -6.97,-4.25 -9.12,-7.49 -1.87,-2.82 -2.3,-4.08 -1.55,-8.1"
         id="path87"
         style="stroke:url(#linearGradient4952)" />
      <path
         class="cls-5"
         d="m 102.71,99.2 c -0.67,5.85 -3.26,10.03 -7.37,13 -4.07,2.87 -9.67,4.52 -15.2,2.97 -5.54,-1.56 -10.21,-4.26 -12.79,-8.38 -2.63,-4.02 -5.56,-9.46 -3.96,-14.29"
         id="path89"
         style="stroke:url(#linear-gradient-2)" />
      <path
         class="cls-3"
         d="m 107.15,99.04 c -0.59,7.34 -3.63,12.68 -8.65,16.57 -4.96,3.76 -11.88,6.07 -18.86,4.37 -6.98,-1.7 -12.94,-4.87 -16.35,-9.91 -3.46,-4.91 -3.81,-6.83 -4.81,-13.36"
         id="path91"
         style="stroke:url(#linear-gradient-3)" />
      <path
         class="cls-2"
         d="m 112.69,98.65 c -0.41,9.19 -3.98,16 -10.08,21.07 -6.03,4.91 -14.58,8.1 -23.37,6.28 -8.8,-1.82 -16.38,-5.52 -20.85,-11.66 -4.54,-5.98 -5.01,-9.01 -4.06,-16.8"
         id="path93"
         style="stroke:url(#linear-gradient-4)" />
      <path
         class="cls-7"
         d="m 119.6,97.92 c -0.11,11.5 -4.28,20.16 -11.67,26.76 -7.31,6.4 -17.85,10.75 -28.93,8.87 -11.07,-1.89 -19.81,-6.98 -26.56,-13.66 -6.75,-6.68 -8.88,-7.81 -6.77,-17.52"
         id="path95"
         style="stroke:url(#linear-gradient-5)" />
      <path
         class="cls-6"
         d="m 128.19,96.71 c 0.36,14.37 -4.47,25.37 -13.41,33.94 -8.86,8.32 -21.84,14.21 -35.75,12.34 -13.91,-1.88 -26.13,-6.82 -33.77,-15.9 -7.73,-8.83 -9.34,-14.79 -7.12,-27.01"
         id="path97"
         style="stroke:url(#linear-gradient-6)" />
      <path
         class="cls-4"
         d="m 138.87,94.82 c 1.07,17.94 -4.47,31.88 -15.27,42.99 -10.7,10.77 -26.66,18.71 -44.12,16.97 -17.46,-1.74 -32.94,-7.38 -42.89,-18.4 -10.04,-10.7 -17.4,-17.69 -15.16,-33.05"
         id="path99"
         style="stroke:url(#linear-gradient-7)" />
      <path
         class="cls-8"
         d="m 152.13,92 c 2.13,22.36 -4.2,40.02 -17.2,54.37 C 122.03,160.3 102.44,170.9 80.55,169.5 58.66,168.09 39.07,161.71 26.17,148.39 13.16,135.46 3.26,119.19 5.38,99.9"
         id="path101"
         style="stroke:url(#linear-gradient-8)" />
    </g>
    <path
       class="cls-9"
       d="m 161.03,92.4 h -0.01 c -1.06,-0.08 -1.44,1 -1.95,3.35 -0.25,1.16 -0.5,2.55 -0.82,3.81 -0.31,1.25 -0.69,2.43 -1.19,2.87 -0.51,0.47 -0.89,-0.17 -1.2,-1.42 -0.32,-1.27 -0.57,-3.21 -0.82,-5.26 -0.26,-2.06 -0.51,-4.25 -0.82,-6.01 -0.32,-1.76 -0.7,-3.12 -1.2,-3.36 -1.01,-0.51 -1.52,4.27 -2.02,9.37 -0.5,5.06 -1.01,10.43 -2.02,10.62 -2.01,0.31 -2.01,-21.51 -4.03,-21.37 -1.01,0.08 -1.51,5.5 -2.01,10.75 -0.51,5.26 -1.01,10.35 -2.02,10.06 -1.01,-0.3 -1.51,-5.36 -2.01,-10.06 -0.51,-4.75 -1.01,-9.12 -2.02,-8.66 -1,0.46 -1.51,4.79 -2.01,8.66 -0.5,3.92 -1.01,7.39 -2.02,6.9 -1,-0.49 -1.51,-3.89 -2.01,-6.9 -0.51,-3.06 -1.01,-5.7 -2.02,-5.33 -1,0.36 -1.51,2.97 -2.01,5.33 -0.51,2.38 -1.01,4.5 -2.02,4.31 -2.01,-0.37 -2.01,-8.4 -4.02,-8.22 -2.02,0.2 -2.02,7.7 -4.03,7.52 -2.02,-0.2 -2.02,-7.12 -4.03,-6.94 -2.01,0.17 -2.01,6.56 -4.03,6.4 -2.01,-0.15 -2.01,-6.06 -4.02,-5.93 -2.02,0.13 -2.02,5.64 -4.03,5.54 -2.01,-0.1 -2.01,-5.31 -4.02,-5.24 -2.02,0.06 -2.02,5.07 -4.03,5.05 -2.02,0 -2.02,-4.97 -4.03,-4.99 -2.01,-0.03 -2.01,5 -4.03,5.06 -2.01,0.07 -2.01,-5.16 -4.02,-5.26 -2.02,-0.11 -2.02,5.44 -4.03,5.59 -2.02,0.15 -2.02,-5.86 -4.03,-6.04 -2.01,-0.17 -2.01,6.37 -4.03,6.58 -2.01,0.2 -2.01,-6.97 -4.02,-7.2 -2.02,-0.18 -2.02,7.55 -4.03,7.98 -0.5,0.18 -0.88,-0.09 -1.19,-0.84 -0.32,-0.75 -0.57,-1.95 -0.82,-3.37 -0.25,-1.42 -0.51,-3.05 -0.82,-4.55 -0.32,-1.49 -0.69,-2.9 -1.2,-3.53 -0.5,-0.55 -0.88,0.06 -1.19,1.66 -0.32,1.55 -0.57,3.93 -0.82,6.42 -0.5,4.99 -1.01,10.41 -2.01,10.68 -1.01,0.31 -1.51,-5.05 -2.02,-10.68 -0.5,-5.61 -1,-11.48 -2.01,-11.77 -1,-0.27 -1.51,5.62 -2.01,11.77 -0.5,6.11 -1.01,12.46 -2.01,12.68 -1.01,0.22 -1.51,-6.16 -2.02,-12.68 -0.5,-6.52 -1,-13.18 -2.01,-13.3 -2.01,-0.23 -2.01,26.77 -4.03,26.78 -2.01,-0.05 -2.01,-26.98 -4.02,-26.74 -1.01,0.1 -1.51,6.75 -2.01,13.26 -0.51,6.52 -1.01,12.91 -2.01,12.73 -1.01,-0.17 -1.51,-6.55 -2.02,-12.73 -0.5,-6.22 -1,-12.24 -2.01,-12.02 -1.01,0.23 -1.51,6.24 -2.01,12.02 -0.51,5.79 -1.01,11.37 -2.02,11.09 -1,-0.28 -1.51,-5.83 -2.01,-11.09 -0.5,-5.3 -1,-10.31 -2.01,-9.97 -1.01,0.34 -1.51,5.33 -2.01,9.97 -0.5,4.67 -1.01,9.01 -2.01,8.6 -1.01,-0.41 -1.51,-4.72 -2.01,-8.6 -0.51,-3.94 -1.01,-7.47 -2.02,-6.98 -0.5,0.21 -0.88,1.24 -1.19,2.55 -0.31,1.31 -0.57,2.91 -0.82,4.43 -0.5,3.05 -1,5.62 -2.01,5.04 C 3.01,100.2 1.82,97.73 2.01,95.75 2.14,94.41 0.58,93.62 0.09,93.6"
       id="path105"
       style="stroke:url(#linear-gradient-9)" />
  </g>
  <g
     id="probe"
     transform="translate(1,-1.5315437)">
    <g
       id="g122">
      <g
         id="_x3C_Mirror_Repeat_x3E_">
        <g
           class="cls-15"
           clip-path="url(#clippath)"
           id="g112">
          <path
             class="cls-13"
             d="M 106.73,85.6 91.18,101.08 C 85.32,97.61 79.46,94.14 73.6,90.67 c 0.06,-6.27 1.24,-14.7 7.03,-21.13 4.33,-4.8 7.45,-4.3 12.22,-9.53 6.35,-6.96 5.39,-12.87 9.37,-21.38 2.54,-5.42 7.43,-12.64 17.85,-19.43 0.21,-0.14 0.43,-0.28 0.65,-0.42 2.14,-1.16 4.82,-2.91 7.52,-5.49 3.83,-3.67 6.07,-7.5 7.35,-10.15 l 7.38,5.01"
             id="path108" />
          <line
             class="cls-13"
             x1="134.19"
             y1="28.18"
             x2="120.09"
             y2="19.200001"
             id="line110" />
        </g>
      </g>
      <g
         id="_x3C_Mirror_Repeat_x3E_-2"
         data-name="_x3C_Mirror_Repeat_x3E_">
        <g
           class="cls-14"
           clip-path="url(#clippath-1)"
           id="g119">
          <path
             class="cls-13"
             d="m 80.05,68.62 -7.44,20.64 c 5.63,3.84 11.25,7.67 16.88,11.51 5.65,-2.71 12.79,-7.35 16.16,-15.32 2.51,-5.95 0.74,-8.57 3.46,-15.11 3.62,-8.7 9.37,-10.33 15.39,-17.55 3.84,-4.6 8.3,-12.08 10.04,-24.4 0.04,-0.25 0.07,-0.51 0.1,-0.76 0.15,-2.43 0.59,-5.6 1.79,-9.14 1.7,-5.02 4.22,-8.68 6.08,-10.96 l -7.66,-4.56"
             id="path115" />
          <line
             class="cls-13"
             x1="120.43"
             y1="19.42"
             x2="134.53999"
             y2="28.389999"
             id="line117" />
        </g>
      </g>
    </g>
  </g>
  <g
     id="text"
     style="stroke:#e1ffff;stroke-opacity:1"
     transform="translate(1,-1.5315437)">
    <g
       aria-label="USBMD"
       transform="matrix(1.06,0,0,1,22.38,69.76)"
       id="text127"
       style="font-weight:800;font-size:27.87px;font-family:Arial-Black, 'Arial Black'"
       class="cls-11">
      <path
         d="m 2.558379,-20.317339 h 5.2392335 v 12.1795165 q 0,2.5175538 0.816504,3.6062257 0.8301123,1.0750635 2.6944625,1.0750635 1.877959,0 2.694463,-1.0750635 0.830113,-1.0886719 0.830113,-3.6062257 V -20.317339 h 5.239233 v 12.1795165 q 0,4.3138624 -2.163735,6.4231642 -2.163736,2.10930187 -6.600074,2.10930187 -4.4227292,0 -6.5864646,-2.10930187 Q 2.558379,-3.8239601 2.558379,-8.1378225 Z"
         id="path4954" />
      <path
         d="m 39.328273,-19.677745 v 4.300254 q -1.673833,-0.748462 -3.266016,-1.129497 -1.592182,-0.381035 -3.007456,-0.381035 -1.877959,0 -2.776113,0.517119 -0.898154,0.517119 -0.898154,1.605791 0,0.816504 0.598769,1.27919 0.612378,0.449077 2.204561,0.775678 l 2.231777,0.449078 q 3.388492,0.68042 4.817373,2.068476 1.428882,1.3880569 1.428882,3.9464359 0,3.3612745 -2.000434,5.0078908 -1.986827,1.63300787 -6.082955,1.63300787 -1.932392,0 -3.878393,-0.36742677 -1.946001,-0.36742677 -3.892002,-1.0886719 v -4.4227296 q 1.946001,1.0342383 3.755918,1.5649658 1.823525,0.5171192 3.510967,0.5171192 1.714658,0 2.626421,-0.5715528 0.911762,-0.5715527 0.911762,-1.6330078 0,-0.9525879 -0.625986,-1.4697071 -0.612378,-0.5171192 -2.46312,-0.9253711 l -2.027652,-0.4490772 q -3.048281,-0.6532031 -4.463554,-2.0820853 -1.401666,-1.428882 -1.401666,-3.851177 0,-3.034673 1.95961,-4.66768 1.959609,-1.633008 5.633877,-1.633008 1.673833,0 3.442925,0.258559 1.769092,0.244952 3.660659,0.748462 z"
         id="path4956" />
      <path
         d="m 53.399357,-12.451685 q 1.238364,0 1.877959,-0.544336 0.639595,-0.544336 0.639595,-1.605791 0,-1.047847 -0.639595,-1.592183 -0.639595,-0.557944 -1.877959,-0.557944 h -2.898589 v 4.300254 z m 0.176909,8.8862845 q 1.578574,0 2.367862,-0.6668115 0.802895,-0.6668116 0.802895,-2.0140431 0,-1.3200147 -0.789287,-1.9732178 -0.789287,-0.6668115 -2.38147,-0.6668115 h -3.075498 v 5.3208839 z m 4.871807,-7.3077105 q 1.687441,0.489903 2.612813,1.8099174 0.925371,1.3200147 0.925371,3.2387989 0,2.9394141 -1.986827,4.3819044 Q 58.012604,0 53.957301,0 h -8.695766 v -20.317339 h 7.865654 q 4.232212,0 6.12378,1.279189 1.905175,1.27919 1.905175,4.096128 0,1.483316 -0.694028,2.531162 -0.694028,1.034239 -2.014043,1.537749 z"
         id="path4958" />
      <path
         d="m 66.504245,-20.317339 h 6.668115 l 4.626856,10.8731102 4.654072,-10.8731102 h 6.654507 V 0 h -4.953457 v -14.860372 l -4.681289,10.9547615 h -3.32045 L 71.47131,-14.860372 V 0 h -4.967065 z"
         id="path4960" />
      <path
         d="m 99.477392,-16.357295 v 12.3972509 h 1.877958 q 3.21158,0 4.89902,-1.5921826 1.70105,-1.5921827 1.70105,-4.6268553 0,-3.021065 -1.68744,-4.599639 -1.68744,-1.578574 -4.91263,-1.578574 z m -5.239234,-3.960044 h 5.52501 q 4.626852,0 6.885852,0.666811 2.2726,0.653203 3.892,2.231777 1.42888,1.374449 2.12291,3.170757 0.69403,1.796309 0.69403,4.068912 0,2.2998191 -0.69403,4.1097361 -0.69403,1.7963087 -2.12291,3.1707569 -1.63301,1.5785743 -3.91922,2.24538586 Q 104.33559,0 99.763168,0 h -5.52501 z"
         id="path4962" />
    </g>
  </g>
</svg>
