<?xml version="1.0" encoding="UTF-8"?>
<svg id="Layer_2" xmlns="http://www.w3.org/2000/svg" xmlns:xlink="http://www.w3.org/1999/xlink" viewBox="0 0 170.1 176.29">
  <defs>
    <style>
      .cls-1, .cls-2, .cls-3, .cls-4, .cls-5, .cls-6, .cls-7, .cls-8, .cls-9, .cls-10 {
        fill: none;
      }

      .cls-11 {
        fill: #417d6d;
      }

      .cls-12 {
        fill: #f0ffda;
      }

      .cls-2 {
        stroke: url(#linear-gradient-4);
      }

      .cls-2, .cls-3, .cls-4, .cls-5, .cls-6, .cls-7, .cls-8, .cls-13, .cls-9, .cls-10 {
        stroke-miterlimit: 10;
      }

      .cls-3 {
        stroke: url(#linear-gradient-3);
      }

      .cls-4 {
        stroke: url(#linear-gradient-7);
      }

      .cls-5 {
        stroke: url(#linear-gradient-2);
      }

      .cls-6 {
        stroke: url(#linear-gradient-6);
      }

      .cls-7 {
        stroke: url(#linear-gradient-5);
      }

      .cls-8 {
        stroke: url(#linear-gradient-8);
      }

      .cls-14 {
        clip-path: url(#clippath-1);
      }

      .cls-13 {
        fill: #346357;
        stroke: #000;
        stroke-width: 1.5px;
      }

      .cls-9 {
        stroke: url(#linear-gradient-9);
        stroke-width: 2px;
      }

      .cls-10 {
        stroke: url(#linear-gradient);
      }

      .cls-15 {
        clip-path: url(#clippath);
      }
    </style>
    <linearGradient id="linear-gradient" x1="69.14" y1="104.05" x2="99.65" y2="104.05" gradientUnits="userSpaceOnUse">
      <stop offset="0" stop-color="#417d6d"/>
      <stop offset=".02" stop-color="#376b5d"/>
      <stop offset=".07" stop-color="#274d43"/>
      <stop offset=".12" stop-color="#1a342d"/>
      <stop offset=".18" stop-color="#10201c"/>
      <stop offset=".25" stop-color="#091310"/>
      <stop offset=".34" stop-color="#050b09"/>
      <stop offset=".49" stop-color="#040907"/>
      <stop offset=".71" stop-color="#040a08"/>
      <stop offset=".78" stop-color="#08110e"/>
      <stop offset=".84" stop-color="#0e1d19"/>
      <stop offset=".88" stop-color="#172e27"/>
      <stop offset=".92" stop-color="#23443b"/>
      <stop offset=".95" stop-color="#315e52"/>
      <stop offset=".98" stop-color="#417d6d"/>
    </linearGradient>
    <linearGradient id="linear-gradient-2" x1="62.42" y1="104.3" x2="103.21" y2="104.3" xlink:href="#linear-gradient"/>
    <linearGradient id="linear-gradient-3" x1="57.99" y1="108.84" x2="107.65" y2="108.84" xlink:href="#linear-gradient"/>
    <linearGradient id="linear-gradient-4" x1="53.42" y1="112.25" x2="113.19" y2="112.25" xlink:href="#linear-gradient"/>
    <linearGradient id="linear-gradient-5" x1="44.41" y1="116.2" x2="120.1" y2="116.2" xlink:href="#linear-gradient"/>
    <linearGradient id="linear-gradient-6" x1="36.72" y1="120.27" x2="128.71" y2="120.27" xlink:href="#linear-gradient"/>
    <linearGradient id="linear-gradient-7" x1="20.53" y1="125.15" x2="139.5" y2="125.15" xlink:href="#linear-gradient"/>
    <linearGradient id="linear-gradient-8" x1="4.59" y1="131.03" x2="153.04" y2="131.03" xlink:href="#linear-gradient"/>
    <linearGradient id="linear-gradient-9" x1=".06" y1="95.84" x2="161.03" y2="95.84" gradientUnits="userSpaceOnUse">
      <stop offset="0" stop-color="#000"/>
      <stop offset=".12" stop-color="#010302"/>
      <stop offset=".22" stop-color="#060d0b"/>
      <stop offset=".31" stop-color="#0f1e1a"/>
      <stop offset=".4" stop-color="#1c362f"/>
      <stop offset=".48" stop-color="#2c554a"/>
      <stop offset=".56" stop-color="#3f7a6b"/>
      <stop offset=".56" stop-color="#417d6d"/>
      <stop offset=".57" stop-color="#3e7768"/>
      <stop offset=".63" stop-color="#2b5248"/>
      <stop offset=".69" stop-color="#1b342e"/>
      <stop offset=".75" stop-color="#0f1d19"/>
      <stop offset=".81" stop-color="#060c0b"/>
      <stop offset=".88" stop-color="#010302"/>
      <stop offset=".98" stop-color="#000"/>
    </linearGradient>
    <clipPath id="clippath">
      <polygon class="cls-1" points="141.16 2.03 77.54 102.02 72.85 102.02 72.85 2.03 141.16 2.03"/>
    </clipPath>
    <clipPath id="clippath-1">
      <polygon class="cls-1" points="141.16 2.03 77.54 102.02 79.52 106.27 170.1 63.91 141.16 2.03"/>
    </clipPath>
  </defs>
  <g id="wire">
    <path class="cls-11" d="M160.79,91.92c10.31-7.66,1.75-25.53-.17-35.74-.6-2.83-1.07-6.11.67-8.69,1.19-2.12,4.01-3.07,6.18-1.87,2.32,1,2.54,4.16,1.85,6.25-3.1,7.98-10.75,2.01-13.95-2.59-4.52-5.82-5.29-13.93-2.97-20.8,1.94-6.78,5.81-18.47-1.3-23.3-3.29-1.91-8.79-2.3-11.5.75-.76,1.18-2.52.06-1.8-1.13.14-.22.34-.36.57-.45,5.38-1.97,12.94-2.13,16.35,3.25,2.41,3.9,2.19,8.68,1.31,12.96-.83,4.24-3.08,8.05-3.8,12.3-1,5.57.44,11.39,3.9,15.86,2.4,3.12,7.68,8.82,11.35,4.6,1.99-2.5,1.72-7.37-2.29-7.24-1.27,0-2.39.83-3.08,1.96-2.24,3.69-.36,8.14.52,12.08,1.45,5.55,3.25,11.03,3.94,16.76.75,5.64-.07,12.66-5.31,16.02-.65.3-1.13-.63-.48-.97h0Z"/>
  </g>
  <g id="background">
    <circle class="cls-11" cx="80.55" cy="95.74" r="80.55"/>
  </g>
  <g id="waves">
    <g>
      <path class="cls-10" d="M99.16,99.2c-.7,4.66-2.88,7.93-6.26,10.19-3.33,2.18-7.86,3.34-12.24,1.95-4.38-1.4-6.97-4.25-9.12-7.49-1.87-2.82-2.3-4.08-1.55-8.1"/>
      <path class="cls-5" d="M102.71,99.2c-.67,5.85-3.26,10.03-7.37,13-4.07,2.87-9.67,4.52-15.2,2.97-5.54-1.56-10.21-4.26-12.79-8.38-2.63-4.02-5.56-9.46-3.96-14.29"/>
      <path class="cls-3" d="M107.15,99.04c-.59,7.34-3.63,12.68-8.65,16.57-4.96,3.76-11.88,6.07-18.86,4.37-6.98-1.7-12.94-4.87-16.35-9.91-3.46-4.91-3.81-6.83-4.81-13.36"/>
      <path class="cls-2" d="M112.69,98.65c-.41,9.19-3.98,16-10.08,21.07-6.03,4.91-14.58,8.1-23.37,6.28-8.8-1.82-16.38-5.52-20.85-11.66-4.54-5.98-5.01-9.01-4.06-16.8"/>
      <path class="cls-7" d="M119.6,97.92c-.11,11.5-4.28,20.16-11.67,26.76-7.31,6.4-17.85,10.75-28.93,8.87-11.07-1.89-19.81-6.98-26.56-13.66s-8.88-7.81-6.77-17.52"/>
      <path class="cls-6" d="M128.19,96.71c.36,14.37-4.47,25.37-13.41,33.94-8.86,8.32-21.84,14.21-35.75,12.34-13.91-1.88-26.13-6.82-33.77-15.9-7.73-8.83-9.34-14.79-7.12-27.01"/>
      <path class="cls-4" d="M138.87,94.82c1.07,17.94-4.47,31.88-15.27,42.99-10.7,10.77-26.66,18.71-44.12,16.97-17.46-1.74-32.94-7.38-42.89-18.4-10.04-10.7-17.4-17.69-15.16-33.05"/>
      <path class="cls-8" d="M152.13,92c2.13,22.36-4.2,40.02-17.2,54.37-12.9,13.93-32.49,24.53-54.38,23.13-21.89-1.41-41.48-7.79-54.38-21.11-13.01-12.93-22.91-29.2-20.79-48.49"/>
    </g>
    <path class="cls-9" d="M161.03,92.4h-.01c-1.06-.08-1.44,1-1.95,3.35-.25,1.16-.5,2.55-.82,3.81-.31,1.25-.69,2.43-1.19,2.87-.51.47-.89-.17-1.2-1.42-.32-1.27-.57-3.21-.82-5.26-.26-2.06-.51-4.25-.82-6.01-.32-1.76-.7-3.12-1.2-3.36-1.01-.51-1.52,4.27-2.02,9.37-.5,5.06-1.01,10.43-2.02,10.62-2.01.31-2.01-21.51-4.03-21.37-1.01.08-1.51,5.5-2.01,10.75-.51,5.26-1.01,10.35-2.02,10.06-1.01-.3-1.51-5.36-2.01-10.06-.51-4.75-1.01-9.12-2.02-8.66-1,.46-1.51,4.79-2.01,8.66-.5,3.92-1.01,7.39-2.02,6.9-1-.49-1.51-3.89-2.01-6.9-.51-3.06-1.01-5.7-2.02-5.33-1,.36-1.51,2.97-2.01,5.33-.51,2.38-1.01,4.5-2.02,4.31-2.01-.37-2.01-8.4-4.02-8.22-2.02.2-2.02,7.7-4.03,7.52-2.02-.2-2.02-7.12-4.03-6.94-2.01.17-2.01,6.56-4.03,6.4-2.01-.15-2.01-6.06-4.02-5.93-2.02.13-2.02,5.64-4.03,5.54s-2.01-5.31-4.02-5.24c-2.02.06-2.02,5.07-4.03,5.05-2.02,0-2.02-4.97-4.03-4.99-2.01-.03-2.01,5-4.03,5.06-2.01.07-2.01-5.16-4.02-5.26-2.02-.11-2.02,5.44-4.03,5.59-2.02.15-2.02-5.86-4.03-6.04-2.01-.17-2.01,6.37-4.03,6.58-2.01.2-2.01-6.97-4.02-7.2-2.02-.18-2.02,7.55-4.03,7.98-.5.18-.88-.09-1.19-.84-.32-.75-.57-1.95-.82-3.37s-.51-3.05-.82-4.55c-.32-1.49-.69-2.9-1.2-3.53-.5-.55-.88.06-1.19,1.66-.32,1.55-.57,3.93-.82,6.42-.5,4.99-1.01,10.41-2.01,10.68-1.01.31-1.51-5.05-2.02-10.68-.5-5.61-1-11.48-2.01-11.77-1-.27-1.51,5.62-2.01,11.77-.5,6.11-1.01,12.46-2.01,12.68-1.01.22-1.51-6.16-2.02-12.68-.5-6.52-1-13.18-2.01-13.3-2.01-.23-2.01,26.77-4.03,26.78-2.01-.05-2.01-26.98-4.02-26.74-1.01.1-1.51,6.75-2.01,13.26-.51,6.52-1.01,12.91-2.01,12.73-1.01-.17-1.51-6.55-2.02-12.73-.5-6.22-1-12.24-2.01-12.02-1.01.23-1.51,6.24-2.01,12.02-.51,5.79-1.01,11.37-2.02,11.09-1-.28-1.51-5.83-2.01-11.09-.5-5.3-1-10.31-2.01-9.97s-1.51,5.33-2.01,9.97c-.5,4.67-1.01,9.01-2.01,8.6-1.01-.41-1.51-4.72-2.01-8.6-.51-3.94-1.01-7.47-2.02-6.98-.5.21-.88,1.24-1.19,2.55s-.57,2.91-.82,4.43c-.5,3.05-1,5.62-2.01,5.04-1.01-.59-2.2-3.06-2.01-5.04.13-1.34-1.43-2.13-1.92-2.15"/>
  </g>
  <g id="probe">
    <g>
      <g id="_x3C_Mirror_Repeat_x3E_">
        <g class="cls-15">
          <path class="cls-13" d="M106.73,85.6l-15.55,15.48c-5.86-3.47-11.72-6.94-17.58-10.41.06-6.27,1.24-14.7,7.03-21.13,4.33-4.8,7.45-4.3,12.22-9.53,6.35-6.96,5.39-12.87,9.37-21.38,2.54-5.42,7.43-12.64,17.85-19.43.21-.14.43-.28.65-.42,2.14-1.16,4.82-2.91,7.52-5.49,3.83-3.67,6.07-7.5,7.35-10.15l7.38,5.01"/>
          <line class="cls-13" x1="134.19" y1="28.18" x2="120.09" y2="19.2"/>
        </g>
      </g>
      <g id="_x3C_Mirror_Repeat_x3E_-2" data-name="_x3C_Mirror_Repeat_x3E_">
        <g class="cls-14">
          <path class="cls-13" d="M80.05,68.62l-7.44,20.64c5.63,3.84,11.25,7.67,16.88,11.51,5.65-2.71,12.79-7.35,16.16-15.32,2.51-5.95.74-8.57,3.46-15.11,3.62-8.7,9.37-10.33,15.39-17.55,3.84-4.6,8.3-12.08,10.04-24.4.04-.25.07-.51.1-.76.15-2.43.59-5.6,1.79-9.14,1.7-5.02,4.22-8.68,6.08-10.96l-7.66-4.56"/>
          <line class="cls-13" x1="120.43" y1="19.42" x2="134.54" y2="28.39"/>
        </g>
      </g>
    </g>
  </g>
  <g id="text">
    <g>
      <path class="cls-12" d="M38.3,49.81h6.52v11.89c0,1.18-.19,2.29-.58,3.34-.39,1.05-1,1.96-1.83,2.75-.83.78-1.7,1.33-2.62,1.65-1.27.44-2.79.67-4.57.67-1.03,0-2.15-.07-3.37-.2-1.22-.14-2.23-.41-3.05-.81-.82-.4-1.56-.98-2.24-1.72-.68-.74-1.14-1.51-1.39-2.3-.4-1.27-.61-2.39-.61-3.37v-11.89h6.52v12.17c0,1.09.32,1.94.96,2.55s1.53.92,2.66.92,2.01-.3,2.65-.9c.64-.6.96-1.46.96-2.56v-12.17Z"/>
      <path class="cls-12" d="M48.01,63.16l6.21-.37c.13.95.41,1.68.82,2.18.67.81,1.63,1.21,2.88,1.21.93,0,1.65-.21,2.16-.62.5-.41.76-.89.76-1.44s-.24-.98-.72-1.39c-.48-.41-1.6-.79-3.35-1.16-2.86-.61-4.91-1.42-6.13-2.42-1.23-1.01-1.85-2.29-1.85-3.85,0-1.03.31-1.99.94-2.91.63-.91,1.58-1.63,2.84-2.15,1.26-.52,3-.78,5.2-.78,2.7,0,4.76.47,6.18,1.42,1.42.95,2.26,2.46,2.53,4.53l-6.16.34c-.16-.9-.51-1.55-1.03-1.96-.52-.41-1.25-.61-2.17-.61-.76,0-1.33.15-1.72.46-.38.3-.58.67-.58,1.11,0,.32.16.6.48.86.31.26,1.04.51,2.19.73,2.85.58,4.9,1.17,6.14,1.76,1.23.59,2.13,1.33,2.7,2.21.56.88.84,1.86.84,2.95,0,1.28-.38,2.46-1.12,3.54-.75,1.08-1.8,1.9-3.14,2.46-1.35.56-3.04.84-5.09.84-3.6,0-6.09-.65-7.47-1.96s-2.17-2.97-2.35-4.98Z"/>
      <path class="cls-12" d="M70.49,49.81h12.23c2.04,0,3.6.48,4.69,1.43,1.09.95,1.64,2.13,1.64,3.54,0,1.18-.39,2.19-1.17,3.03-.52.56-1.28,1.01-2.28,1.33,1.52.34,2.64.94,3.35,1.78.72.84,1.07,1.89,1.07,3.16,0,1.03-.25,1.96-.76,2.79s-1.21,1.48-2.09,1.96c-.55.3-1.38.52-2.48.65-1.47.18-2.45.27-2.93.27h-11.28v-19.95ZM77.08,57.63h2.84c1.02,0,1.73-.17,2.13-.5.4-.33.6-.81.6-1.44,0-.58-.2-1.03-.6-1.36s-1.09-.49-2.08-.49h-2.88v3.78ZM77.08,65.47h3.33c1.12,0,1.92-.19,2.38-.56s.69-.88.69-1.52c0-.59-.23-1.06-.69-1.42s-1.26-.54-2.4-.54h-3.32v4.04Z"/>
      <path class="cls-12" d="M93.37,49.81h8.59l3.31,12.14,3.29-12.14h8.59v19.95h-5.35v-15.22l-4.12,15.22h-4.84l-4.11-15.22v15.22h-5.35v-19.95Z"/>
      <path class="cls-12" d="M121.4,49.81h9.71c1.91,0,3.46.25,4.64.73,1.18.49,2.15,1.19,2.92,2.11.77.92,1.33,1.98,1.67,3.2.35,1.22.52,2.5.52,3.87,0,2.13-.26,3.79-.77,4.96-.51,1.17-1.23,2.16-2.14,2.95s-1.89,1.32-2.94,1.59c-1.43.36-2.73.54-3.89.54h-9.71v-19.95ZM127.93,54.32v10.9h1.6c1.37,0,2.34-.14,2.91-.43.58-.29,1.03-.78,1.36-1.5s.49-1.87.49-3.46c0-2.11-.37-3.56-1.1-4.34s-1.94-1.17-3.63-1.17h-1.63Z"/>
    </g>
    <path d="M29.03,50.67c.63-.04,1.25-.08,1.88-.12"/>
  </g>
</svg>